<mxfile host="Electron" modified="2024-10-17T17:45:41.108Z" agent="Mozilla/5.0 (Windows NT 10.0; Win64; x64) AppleWebKit/537.36 (KHTML, like Gecko) draw.io/21.6.8 Chrome/114.0.5735.289 Electron/25.5.0 Safari/537.36" etag="L-fPErT6yzoLAgw7UYZr" version="21.6.8" type="device">
  <diagram name="PÃ¡gina-1" id="aMXk6v3j-jfWDDV5a_vC">
    <mxGraphModel dx="1434" dy="836" grid="1" gridSize="10" guides="1" tooltips="1" connect="1" arrows="1" fold="1" page="1" pageScale="1" pageWidth="827" pageHeight="1169" math="0" shadow="0">
      <root>
        <mxCell id="0" />
        <mxCell id="1" parent="0" />
        <mxCell id="llH-Rhr2r50GgQqcx2H5-3" value="&lt;b&gt;Wi-Fi Task&lt;/b&gt;" style="html=1;dropTarget=0;whiteSpace=wrap;" vertex="1" parent="1">
          <mxGeometry x="270" y="310" width="180" height="90" as="geometry" />
        </mxCell>
        <mxCell id="llH-Rhr2r50GgQqcx2H5-4" value="" style="shape=module;jettyWidth=8;jettyHeight=4;" vertex="1" parent="llH-Rhr2r50GgQqcx2H5-3">
          <mxGeometry x="1" width="20" height="20" relative="1" as="geometry">
            <mxPoint x="-27" y="7" as="offset" />
          </mxGeometry>
        </mxCell>
        <mxCell id="llH-Rhr2r50GgQqcx2H5-5" value="&lt;b&gt;CSI Task&lt;/b&gt;" style="html=1;dropTarget=0;whiteSpace=wrap;" vertex="1" parent="1">
          <mxGeometry x="480" y="310" width="180" height="90" as="geometry" />
        </mxCell>
        <mxCell id="llH-Rhr2r50GgQqcx2H5-6" value="" style="shape=module;jettyWidth=8;jettyHeight=4;" vertex="1" parent="llH-Rhr2r50GgQqcx2H5-5">
          <mxGeometry x="1" width="20" height="20" relative="1" as="geometry">
            <mxPoint x="-27" y="7" as="offset" />
          </mxGeometry>
        </mxCell>
        <mxCell id="llH-Rhr2r50GgQqcx2H5-7" value="&lt;b&gt;Predictor Task&lt;/b&gt;" style="html=1;dropTarget=0;whiteSpace=wrap;" vertex="1" parent="1">
          <mxGeometry x="990" y="310" width="180" height="90" as="geometry" />
        </mxCell>
        <mxCell id="llH-Rhr2r50GgQqcx2H5-8" value="" style="shape=module;jettyWidth=8;jettyHeight=4;" vertex="1" parent="llH-Rhr2r50GgQqcx2H5-7">
          <mxGeometry x="1" width="20" height="20" relative="1" as="geometry">
            <mxPoint x="-27" y="7" as="offset" />
          </mxGeometry>
        </mxCell>
        <mxCell id="llH-Rhr2r50GgQqcx2H5-9" value="&lt;b&gt;Processor Task&lt;/b&gt;" style="html=1;dropTarget=0;whiteSpace=wrap;" vertex="1" parent="1">
          <mxGeometry x="720" y="310" width="180" height="90" as="geometry" />
        </mxCell>
        <mxCell id="llH-Rhr2r50GgQqcx2H5-10" value="" style="shape=module;jettyWidth=8;jettyHeight=4;" vertex="1" parent="llH-Rhr2r50GgQqcx2H5-9">
          <mxGeometry x="1" width="20" height="20" relative="1" as="geometry">
            <mxPoint x="-27" y="7" as="offset" />
          </mxGeometry>
        </mxCell>
        <mxCell id="llH-Rhr2r50GgQqcx2H5-11" value="&lt;b&gt;Filtros&lt;/b&gt;" style="html=1;dropTarget=0;whiteSpace=wrap;" vertex="1" parent="1">
          <mxGeometry x="720" y="460" width="180" height="90" as="geometry" />
        </mxCell>
        <mxCell id="llH-Rhr2r50GgQqcx2H5-12" value="" style="shape=module;jettyWidth=8;jettyHeight=4;" vertex="1" parent="llH-Rhr2r50GgQqcx2H5-11">
          <mxGeometry x="1" width="20" height="20" relative="1" as="geometry">
            <mxPoint x="-27" y="7" as="offset" />
          </mxGeometry>
        </mxCell>
      </root>
    </mxGraphModel>
  </diagram>
</mxfile>
